<svg xmlns="http://www.w3.org/2000/svg" version="1.1" xmlns:xlink="http://www.w3.org/1999/xlink" xmlns:svgjs="http://svgjs.dev/svgjs" width="2000" height="1247" viewBox="0 0 2000 1247"><g transform="matrix(1,0,0,1,-1.2121212121212466,0.504858299595071)"><svg viewBox="0 0 396 247" data-background-color="#ffffff" preserveAspectRatio="xMidYMid meet" height="1247" width="2000" xmlns="http://www.w3.org/2000/svg" xmlns:xlink="http://www.w3.org/1999/xlink"><g id="tight-bounds" transform="matrix(1,0,0,1,0.2400000000000091,-0.09999999999999432)"><svg viewBox="0 0 395.52 247.2" height="247.2" width="395.52"><g><svg></svg></g><g><svg viewBox="0 0 395.52 247.2" height="247.2" width="395.52"><mask id="fac60dcc-1211-4070-a97b-46e110fe8b74"><rect width="395.52" height="247.2" fill="white"></rect><g transform="matrix(1,0,0,1,8.731198936589323,37.08)" id="clone"><svg viewBox="0 0 378.05760212682134 173.04" height="173.04" width="378.05760212682134"><g><svg viewBox="0 0 395.52 181.032679715937" height="173.04" width="378.05760212682134"><g transform="matrix(1,0,0,1,0,108.89835421947501)"><svg viewBox="0 0 395.52 72.134325496462" height="72.134325496462" width="395.52"><g id="SvgjsG1007"><svg viewBox="0 0 395.52 72.134325496462" height="72.134325496462" width="395.52" id="SvgjsSvg1006"><g><svg viewBox="0 0 395.52 72.134325496462" height="72.134325496462" width="395.52"><g transform="matrix(1,0,0,1,0,0)"><svg width="395.52" viewBox="-0.8500000000000001 -37.6 220.04 40.95" height="72.134325496462" data-palette-color="#000000"><path d="M17.1-34.6L17.1-34.6Q23.05-34.6 27.25-32.15 31.45-29.7 31.45-26.95L31.45-26.95Q31.45-26.2 31.13-25.68 30.8-25.15 30.33-24.93 29.85-24.7 29.3-24.7L29.3-24.7Q28.4-24.7 26.6-25.63 24.8-26.55 22.6-27.48 20.4-28.4 18.55-28.4L18.55-28.4Q15.6-28.4 15.6-26L15.6-26Q15.6-25.25 16.07-24.58 16.55-23.9 17.6-23.18 18.65-22.45 19.65-21.9 20.65-21.35 22.4-20.43 24.15-19.5 25.35-18.8L25.35-18.8Q29.2-16.6 30.75-14.6 32.3-12.6 32.3-10L32.3-10Q32.3 0.35 18.35 0.35L18.35 0.35Q15.6 0.35 13.03-0.2 10.45-0.75 8.53-1.65 6.6-2.55 5.13-3.65 3.65-4.75 2.9-5.9 2.15-7.05 2.15-8.05L2.15-8.05Q2.15-9.15 2.88-9.93 3.6-10.7 5-10.7L5-10.7Q6.05-10.7 10.05-9.38 14.05-8.05 16.5-8.05L16.5-8.05Q18.75-8.05 18.75-9.6L18.75-9.6Q18.75-10.05 18.57-10.43 18.4-10.8 17.98-11.18 17.55-11.55 17.03-11.88 16.5-12.2 15.58-12.7 14.65-13.2 13.73-13.7 12.8-14.2 11.3-15 9.8-15.8 8.4-16.6L8.4-16.6Q6.55-17.65 5.23-19.2 3.9-20.75 3.3-22.28 2.7-23.8 2.7-25.1L2.7-25.1Q2.7-29.3 6.45-31.95 10.2-34.6 17.1-34.6ZM52.15-11.85L52.15-11.85Q52.15-14.45 51.5-16.43 50.85-18.4 49.6-18.4L49.6-18.4Q48.75-18.4 48.1-17.4 47.45-16.4 47.15-14.95 46.85-13.5 46.85-11.85L46.85-11.85Q46.85-9.3 47.55-7.38 48.25-5.45 49.55-5.45 50.85-5.45 51.5-7.35 52.15-9.25 52.15-11.85ZM49.55 0.35L49.55 0.35Q45.65 0.35 42.52-1.05 39.4-2.45 37.52-5.25 35.65-8.05 35.65-11.8L35.65-11.8Q35.65-17.5 39.55-20.85 43.45-24.2 49.55-24.2 55.65-24.2 59.5-20.85 63.35-17.5 63.35-11.8L63.35-11.8Q63.35-6.15 59.42-2.9 55.5 0.35 49.55 0.35ZM78.45-19.7L78.5-10.55Q78.5-7.7 80.7-7.7L80.7-7.7Q81.45-7.7 82.02-8.18 82.59-8.65 82.9-9.5 83.2-10.35 83.2-11.45L83.2-11.45 83.2-18.15Q83.2-19.85 83.8-21.13 84.4-22.4 85.55-23.1 86.7-23.8 88.25-23.8L88.25-23.8Q90.95-23.8 92.45-22.63 93.95-21.45 93.95-18.3L93.95-18.3 93.95-5.3Q93.95-2.25 92.7-1.1 91.45 0.05 88.3 0.05L88.3 0.05Q86.95 0.05 86-0.23 85.05-0.5 84.47-1.05 83.9-1.6 83.59-2.5L83.59-2.5Q81.55-1.15 79.27-0.6 77-0.05 74.2-0.05L74.2-0.05Q70.65-0.05 69.09-2.83 67.55-5.6 67.55-11.95L67.55-11.95Q67.55-15.1 67.7-17.07 67.84-19.05 68.17-20.48 68.5-21.9 69.17-22.6 69.84-23.3 70.77-23.6 71.7-23.9 73.2-23.9L73.2-23.9Q76-23.9 77.22-22.85 78.45-21.8 78.45-19.7L78.45-19.7ZM114.19-4.15L114.14-13.45Q114.14-16.25 111.94-16.25L111.94-16.25Q110.89-16.25 110.22-15.38 109.54-14.5 109.44-13.05L109.44-13.05 109.44-5.35Q109.44-2.3 108.19-1.15 106.94 0 103.79 0L103.79 0Q100.84 0 99.77-1.38 98.69-2.75 98.69-5.9L98.69-5.9 98.69-18.2Q98.69-20.75 100.07-22.3 101.44-23.85 103.74-23.85L103.74-23.85Q105.64-23.85 106.94-23.3 108.24-22.75 108.89-21.4L108.89-21.4Q112.79-23.95 118.39-23.95L118.39-23.95Q121.94-23.95 123.52-21.15 125.09-18.35 125.09-11.95L125.09-11.95Q125.09-8.8 124.94-6.83 124.79-4.85 124.47-3.43 124.14-2 123.44-1.3 122.74-0.6 121.82-0.3 120.89 0 119.44 0L119.44 0Q116.64 0 115.42-1.05 114.19-2.1 114.19-4.15L114.19-4.15ZM156.24-28.7L156.24-7.5Q156.24-3.45 154.89-1.73 153.54 0 150.74 0L150.74 0Q147.54 0 146.34-2L146.34-2Q143.09 0.35 138.49 0.35L138.49 0.35Q134.59 0.35 131.99-2.88 129.39-6.1 129.39-11.7L129.39-11.7Q129.39-17.4 131.94-20.78 134.49-24.15 138.49-24.15L138.49-24.15Q142.09-24.15 145.24-21.85L145.24-21.85 145.24-28.25Q145.24-31.3 146.74-32.77 148.24-34.25 150.74-34.25L150.74-34.25Q153.49-34.25 154.87-33.15 156.24-32.05 156.24-28.7L156.24-28.7ZM145.34-7.2L145.34-7.2 145.29-16.55Q144.44-17.95 143.09-17.95L143.09-17.95Q142.24-17.95 141.56-17 140.89-16.05 140.54-14.65 140.19-13.25 140.19-11.7L140.19-11.7Q140.19-9.4 140.94-7.6 141.69-5.8 143.04-5.8L143.04-5.8Q143.29-5.8 143.54-5.85 143.79-5.9 143.99-5.98 144.19-6.05 144.39-6.18 144.59-6.3 144.74-6.45 144.89-6.6 145.04-6.8 145.19-7 145.34-7.2ZM174.59 0.3L174.59 0.3Q168.49 0.3 164.51-2.85 160.54-6 160.54-11.45L160.54-11.45Q160.54-17.35 164.46-20.78 168.39-24.2 174.59-24.2L174.59-24.2Q180.44-24.2 183.16-22.13 185.89-20.05 185.89-16.45L185.89-16.45Q185.89-15.75 185.71-15.1 185.54-14.45 185.16-13.83 184.79-13.2 184.16-12.68 183.54-12.15 182.74-11.73 181.94-11.3 180.84-11.08 179.74-10.85 178.49-10.85L178.49-10.85 171.44-10.8Q171.94-9.2 173.24-8.28 174.54-7.35 176.54-7.35L176.54-7.35Q178.69-7.35 180.94-7.9L180.94-7.9Q181.89-8.15 183.01-8.7 184.14-9.25 184.64-9.25L184.64-9.25Q185.49-9.25 185.96-8.75 186.44-8.25 186.44-7.5L186.44-7.5Q186.44-6.6 185.64-5.33 184.84-4.05 183.41-2.78 181.99-1.5 179.64-0.6 177.29 0.3 174.59 0.3ZM171.19-14L171.19-14Q174.64-14.05 174.94-14.05L174.94-14.05Q175.69-14.05 176.04-14.95L176.04-14.95Q176.29-15.6 176.29-16.75L176.29-16.75Q176.29-19.9 174.39-19.9L174.39-19.9Q173.69-19.9 173.01-19.15 172.34-18.4 171.84-17.03 171.34-15.65 171.19-14ZM204.34 0.3L204.34 0.3Q198.24 0.3 194.26-2.85 190.29-6 190.29-11.45L190.29-11.45Q190.29-17.35 194.21-20.78 198.14-24.2 204.34-24.2L204.34-24.2Q210.19-24.2 212.91-22.13 215.64-20.05 215.64-16.45L215.64-16.45Q215.64-15.75 215.46-15.1 215.29-14.45 214.91-13.83 214.54-13.2 213.91-12.68 213.29-12.15 212.49-11.73 211.69-11.3 210.59-11.08 209.49-10.85 208.24-10.85L208.24-10.85 201.19-10.8Q201.69-9.2 202.99-8.28 204.29-7.35 206.29-7.35L206.29-7.35Q208.44-7.35 210.69-7.9L210.69-7.9Q211.64-8.15 212.76-8.7 213.89-9.25 214.39-9.25L214.39-9.25Q215.24-9.25 215.71-8.75 216.19-8.25 216.19-7.5L216.19-7.5Q216.19-6.6 215.39-5.33 214.59-4.05 213.16-2.78 211.74-1.5 209.39-0.6 207.04 0.3 204.34 0.3ZM200.94-14L200.94-14Q204.39-14.05 204.69-14.05L204.69-14.05Q205.44-14.05 205.79-14.95L205.79-14.95Q206.04-15.6 206.04-16.75L206.04-16.75Q206.04-19.9 204.14-19.9L204.14-19.9Q203.44-19.9 202.76-19.15 202.09-18.4 201.59-17.03 201.09-15.65 200.94-14Z" opacity="1" transform="matrix(1,0,0,1,0,0)" fill="black" class="wordmark-text-0" id="SvgjsPath1005" stroke-width="5" stroke="black" stroke-linejoin="round"></path></svg></g></svg></g></svg></g></svg></g><g transform="matrix(1,0,0,1,145.64950749476043,0)"><svg viewBox="0 0 104.22098501047914 99.68963783611048" height="99.68963783611048" width="104.22098501047914"><g><svg xmlns="http://www.w3.org/2000/svg" xmlns:xlink="http://www.w3.org/1999/xlink" version="1.1" x="0" y="0" viewBox="0 5 92 88" enable-background="new 0 0 96 96" xml:space="preserve" height="99.68963783611048" width="104.22098501047914" class="icon-icon-0" data-fill-palette-color="accent" id="SvgjsSvg1004"><g fill="black" stroke-width="5" stroke="black" stroke-linejoin="round"><rect y="20" fill="black" width="4" height="59" stroke-width="5" stroke="black" stroke-linejoin="round"></rect></g><g fill="black" stroke-width="5" stroke="black" stroke-linejoin="round"><rect x="8" y="33" fill="black" width="4" height="33" stroke-width="5" stroke="black" stroke-linejoin="round"></rect></g><g fill="black" stroke-width="5" stroke="black" stroke-linejoin="round"><rect x="16" y="27" fill="black" width="4" height="45" stroke-width="5" stroke="black" stroke-linejoin="round"></rect></g><g fill="black" stroke-width="5" stroke="black" stroke-linejoin="round"><rect x="24" y="16" fill="black" width="4" height="67" stroke-width="5" stroke="black" stroke-linejoin="round"></rect></g><g fill="black" stroke-width="5" stroke="black" stroke-linejoin="round"><rect x="32" y="43" fill="black" width="4" height="13" stroke-width="5" stroke="black" stroke-linejoin="round"></rect></g><g fill="black" stroke-width="5" stroke="black" stroke-linejoin="round"><rect x="40" y="37" fill="black" width="4" height="25" stroke-width="5" stroke="black" stroke-linejoin="round"></rect></g><g fill="black" stroke-width="5" stroke="black" stroke-linejoin="round"><rect x="48" y="30" fill="black" width="4" height="39" stroke-width="5" stroke="black" stroke-linejoin="round"></rect></g><g fill="black" stroke-width="5" stroke="black" stroke-linejoin="round"><rect x="56" y="33" fill="black" width="4" height="33" stroke-width="5" stroke="black" stroke-linejoin="round"></rect></g><g fill="black" stroke-width="5" stroke="black" stroke-linejoin="round"><rect x="64" y="47" fill="black" width="4" height="5" stroke-width="5" stroke="black" stroke-linejoin="round"></rect></g><g fill="black" stroke-width="5" stroke="black" stroke-linejoin="round"><rect x="72" y="5" fill="black" width="4" height="88" stroke-width="5" stroke="black" stroke-linejoin="round"></rect></g><g fill="black" stroke-width="5" stroke="black" stroke-linejoin="round"><rect x="80" y="23" fill="black" width="4" height="53" stroke-width="5" stroke="black" stroke-linejoin="round"></rect></g><g fill="black" stroke-width="5" stroke="black" stroke-linejoin="round"><rect x="88" y="37" fill="black" width="4" height="25" stroke-width="5" stroke="black" stroke-linejoin="round"></rect></g></svg></g></svg></g><g></g></svg></g></svg></g></mask><g mask="url(#fac60dcc-1211-4070-a97b-46e110fe8b74)"><g><path transform="translate(75.92824,244.72446) scale(7.07296,7.07296)" d="M17.1-34.6v0c3.967 0 7.35 0.817 10.15 2.45 2.8 1.633 4.2 3.367 4.2 5.2v0c0 0.5-0.107 0.923-0.32 1.27-0.22 0.353-0.487 0.603-0.8 0.75-0.32 0.153-0.663 0.23-1.03 0.23v0c-0.6 0-1.5-0.31-2.7-0.93-1.2-0.613-2.533-1.23-4-1.85-1.467-0.613-2.817-0.92-4.05-0.92v0c-1.967 0-2.95 0.8-2.95 2.4v0c0 0.5 0.157 0.973 0.47 1.42 0.32 0.453 0.83 0.92 1.53 1.4 0.7 0.487 1.383 0.913 2.05 1.28 0.667 0.367 1.583 0.857 2.75 1.47 1.167 0.62 2.15 1.163 2.95 1.63v0c2.567 1.467 4.367 2.867 5.4 4.2 1.033 1.333 1.55 2.867 1.55 4.6v0c0 6.9-4.65 10.35-13.95 10.35v0c-1.833 0-3.607-0.183-5.32-0.55-1.72-0.367-3.22-0.85-4.5-1.45-1.287-0.6-2.42-1.267-3.4-2-0.987-0.733-1.73-1.483-2.23-2.25-0.5-0.767-0.75-1.483-0.75-2.15v0c0-0.733 0.243-1.36 0.73-1.88 0.48-0.513 1.187-0.77 2.12-0.77v0c0.7 0 2.383 0.44 5.05 1.32 2.667 0.887 4.817 1.33 6.45 1.33v0c1.5 0 2.25-0.517 2.25-1.55v0c0-0.3-0.06-0.577-0.18-0.83-0.113-0.247-0.31-0.497-0.59-0.75-0.287-0.247-0.603-0.48-0.95-0.7-0.353-0.213-0.837-0.487-1.45-0.82-0.62-0.333-1.237-0.667-1.85-1-0.62-0.333-1.43-0.767-2.43-1.3-1-0.533-1.967-1.067-2.9-1.6v0c-1.233-0.7-2.29-1.567-3.17-2.6-0.887-1.033-1.53-2.06-1.93-3.08-0.4-1.013-0.6-1.953-0.6-2.82v0c0-2.8 1.25-5.083 3.75-6.85 2.5-1.767 6.05-2.65 10.65-2.65z" fill="#7e3cff" fill-rule="nonzero" stroke="none" stroke-width="1" stroke-linecap="butt" stroke-linejoin="miter" stroke-miterlimit="10" stroke-dasharray="" stroke-dashoffset="0" font-family="none" font-weight="none" font-size="none" text-anchor="none" style="mix-blend-mode: normal" data-fill-palette-color="tertiary"></path></g></g><g transform="matrix(1,0,0,1,8.731198936589323,37.08)"><svg viewBox="0 0 378.05760212682134 173.04" height="173.04" width="378.05760212682134"><g><svg viewBox="0 0 395.52 181.032679715937" height="173.04" width="378.05760212682134"><g transform="matrix(1,0,0,1,0,108.89835421947501)"><svg viewBox="0 0 395.52 72.134325496462" height="72.134325496462" width="395.52"><g id="textblocktransform"><svg viewBox="0 0 395.52 72.134325496462" height="72.134325496462" width="395.52" id="textblock"><g><svg viewBox="0 0 395.52 72.134325496462" height="72.134325496462" width="395.52"><g transform="matrix(1,0,0,1,0,0)"><svg width="395.52" viewBox="-0.8500000000000001 -37.6 220.04 40.95" height="72.134325496462" data-palette-color="#000000"><path d="M17.1-34.6L17.1-34.6Q23.05-34.6 27.25-32.15 31.45-29.7 31.45-26.95L31.45-26.95Q31.45-26.2 31.13-25.68 30.8-25.15 30.33-24.93 29.85-24.7 29.3-24.7L29.3-24.7Q28.4-24.7 26.6-25.63 24.8-26.55 22.6-27.48 20.4-28.4 18.55-28.4L18.55-28.4Q15.6-28.4 15.6-26L15.6-26Q15.6-25.25 16.07-24.58 16.55-23.9 17.6-23.18 18.65-22.45 19.65-21.9 20.65-21.35 22.4-20.43 24.15-19.5 25.35-18.8L25.35-18.8Q29.2-16.6 30.75-14.6 32.3-12.6 32.3-10L32.3-10Q32.3 0.35 18.35 0.35L18.35 0.35Q15.6 0.35 13.03-0.2 10.45-0.75 8.53-1.65 6.6-2.55 5.13-3.65 3.65-4.75 2.9-5.9 2.15-7.05 2.15-8.05L2.15-8.05Q2.15-9.15 2.88-9.93 3.6-10.7 5-10.7L5-10.7Q6.05-10.7 10.05-9.38 14.05-8.05 16.5-8.05L16.5-8.05Q18.75-8.05 18.75-9.6L18.75-9.6Q18.75-10.05 18.57-10.43 18.4-10.8 17.98-11.18 17.55-11.55 17.03-11.88 16.5-12.2 15.58-12.7 14.65-13.2 13.73-13.7 12.8-14.2 11.3-15 9.8-15.8 8.4-16.6L8.4-16.6Q6.55-17.65 5.23-19.2 3.9-20.75 3.3-22.28 2.7-23.8 2.7-25.1L2.7-25.1Q2.7-29.3 6.45-31.95 10.2-34.6 17.1-34.6ZM52.15-11.85L52.15-11.85Q52.15-14.45 51.5-16.43 50.85-18.4 49.6-18.4L49.6-18.4Q48.75-18.4 48.1-17.4 47.45-16.4 47.15-14.95 46.85-13.5 46.85-11.85L46.85-11.85Q46.85-9.3 47.55-7.38 48.25-5.45 49.55-5.45 50.85-5.45 51.5-7.35 52.15-9.25 52.15-11.85ZM49.55 0.35L49.55 0.35Q45.65 0.35 42.52-1.05 39.4-2.45 37.52-5.25 35.65-8.05 35.65-11.8L35.65-11.8Q35.65-17.5 39.55-20.85 43.45-24.2 49.55-24.2 55.65-24.2 59.5-20.85 63.35-17.5 63.35-11.8L63.35-11.8Q63.35-6.15 59.42-2.9 55.5 0.35 49.55 0.35ZM78.45-19.7L78.5-10.55Q78.5-7.7 80.7-7.7L80.7-7.7Q81.45-7.7 82.02-8.18 82.59-8.65 82.9-9.5 83.2-10.35 83.2-11.45L83.2-11.45 83.2-18.15Q83.2-19.85 83.8-21.13 84.4-22.4 85.55-23.1 86.7-23.8 88.25-23.8L88.25-23.8Q90.95-23.8 92.45-22.63 93.95-21.45 93.95-18.3L93.95-18.3 93.95-5.3Q93.95-2.25 92.7-1.1 91.45 0.05 88.3 0.05L88.3 0.05Q86.95 0.05 86-0.23 85.05-0.5 84.47-1.05 83.9-1.6 83.59-2.5L83.59-2.5Q81.55-1.15 79.27-0.6 77-0.05 74.2-0.05L74.2-0.05Q70.65-0.05 69.09-2.83 67.55-5.6 67.55-11.95L67.55-11.95Q67.55-15.1 67.7-17.07 67.84-19.05 68.17-20.48 68.5-21.9 69.17-22.6 69.84-23.3 70.77-23.6 71.7-23.9 73.2-23.9L73.2-23.9Q76-23.9 77.22-22.85 78.45-21.8 78.45-19.7L78.45-19.7ZM114.19-4.15L114.14-13.45Q114.14-16.25 111.94-16.25L111.94-16.25Q110.89-16.25 110.22-15.38 109.54-14.5 109.44-13.05L109.44-13.05 109.44-5.35Q109.44-2.3 108.19-1.15 106.94 0 103.79 0L103.79 0Q100.84 0 99.77-1.38 98.69-2.75 98.69-5.9L98.69-5.9 98.69-18.2Q98.69-20.75 100.07-22.3 101.44-23.85 103.74-23.85L103.74-23.85Q105.64-23.85 106.94-23.3 108.24-22.75 108.89-21.4L108.89-21.4Q112.79-23.95 118.39-23.95L118.39-23.95Q121.94-23.95 123.52-21.15 125.09-18.35 125.09-11.95L125.09-11.95Q125.09-8.8 124.94-6.83 124.79-4.85 124.47-3.43 124.14-2 123.44-1.3 122.74-0.6 121.82-0.3 120.89 0 119.44 0L119.44 0Q116.64 0 115.42-1.05 114.19-2.1 114.19-4.15L114.19-4.15ZM156.24-28.7L156.24-7.5Q156.24-3.45 154.89-1.73 153.54 0 150.74 0L150.74 0Q147.54 0 146.34-2L146.34-2Q143.09 0.35 138.49 0.35L138.49 0.35Q134.59 0.35 131.99-2.88 129.39-6.1 129.39-11.7L129.39-11.7Q129.39-17.4 131.94-20.78 134.49-24.15 138.49-24.15L138.49-24.15Q142.09-24.15 145.24-21.85L145.24-21.85 145.24-28.25Q145.24-31.3 146.74-32.77 148.24-34.25 150.74-34.25L150.74-34.25Q153.49-34.25 154.87-33.15 156.24-32.05 156.24-28.7L156.24-28.7ZM145.34-7.2L145.34-7.2 145.29-16.55Q144.44-17.95 143.09-17.95L143.09-17.95Q142.24-17.95 141.56-17 140.89-16.05 140.54-14.65 140.19-13.25 140.19-11.7L140.19-11.7Q140.19-9.4 140.94-7.6 141.69-5.8 143.04-5.8L143.04-5.8Q143.29-5.8 143.54-5.85 143.79-5.9 143.99-5.98 144.19-6.05 144.39-6.18 144.59-6.3 144.74-6.45 144.89-6.6 145.04-6.8 145.19-7 145.34-7.2ZM174.59 0.3L174.59 0.3Q168.49 0.3 164.51-2.85 160.54-6 160.54-11.45L160.54-11.45Q160.54-17.35 164.46-20.78 168.39-24.2 174.59-24.2L174.59-24.2Q180.44-24.2 183.16-22.13 185.89-20.05 185.89-16.45L185.89-16.45Q185.89-15.75 185.71-15.1 185.54-14.45 185.16-13.83 184.79-13.2 184.16-12.68 183.54-12.15 182.74-11.73 181.94-11.3 180.84-11.08 179.74-10.85 178.49-10.85L178.49-10.85 171.44-10.8Q171.94-9.2 173.24-8.28 174.54-7.35 176.54-7.35L176.54-7.35Q178.69-7.35 180.94-7.9L180.94-7.9Q181.89-8.15 183.01-8.7 184.14-9.25 184.64-9.25L184.64-9.25Q185.49-9.25 185.96-8.75 186.44-8.25 186.44-7.5L186.44-7.5Q186.44-6.6 185.64-5.33 184.84-4.05 183.41-2.78 181.99-1.5 179.64-0.6 177.29 0.3 174.59 0.3ZM171.19-14L171.19-14Q174.64-14.05 174.94-14.05L174.94-14.05Q175.69-14.05 176.04-14.95L176.04-14.95Q176.29-15.6 176.29-16.75L176.29-16.75Q176.29-19.9 174.39-19.9L174.39-19.9Q173.69-19.9 173.01-19.15 172.34-18.4 171.84-17.03 171.34-15.65 171.19-14ZM204.34 0.3L204.34 0.3Q198.24 0.3 194.26-2.85 190.29-6 190.29-11.45L190.29-11.45Q190.29-17.35 194.21-20.78 198.14-24.2 204.34-24.2L204.34-24.2Q210.19-24.2 212.91-22.13 215.64-20.05 215.64-16.45L215.64-16.45Q215.64-15.75 215.46-15.1 215.29-14.45 214.91-13.83 214.54-13.2 213.91-12.68 213.29-12.15 212.49-11.73 211.69-11.3 210.59-11.08 209.49-10.85 208.24-10.85L208.24-10.85 201.19-10.8Q201.69-9.2 202.99-8.28 204.29-7.35 206.29-7.35L206.29-7.35Q208.44-7.35 210.69-7.9L210.69-7.9Q211.64-8.15 212.76-8.7 213.89-9.25 214.39-9.25L214.39-9.25Q215.24-9.25 215.71-8.75 216.19-8.25 216.19-7.5L216.19-7.5Q216.19-6.6 215.39-5.33 214.59-4.05 213.16-2.78 211.74-1.5 209.39-0.6 207.04 0.3 204.34 0.3ZM200.94-14L200.94-14Q204.39-14.05 204.69-14.05L204.69-14.05Q205.44-14.05 205.79-14.95L205.79-14.95Q206.04-15.6 206.04-16.75L206.04-16.75Q206.04-19.9 204.14-19.9L204.14-19.9Q203.44-19.9 202.76-19.15 202.09-18.4 201.59-17.03 201.09-15.65 200.94-14Z" opacity="1" transform="matrix(1,0,0,1,0,0)" fill="#000000" class="wordmark-text-0" data-fill-palette-color="primary" id="text-0"></path></svg></g></svg></g></svg></g></svg></g><g transform="matrix(1,0,0,1,145.64950749476043,0)"><svg viewBox="0 0 104.22098501047914 99.68963783611048" height="99.68963783611048" width="104.22098501047914"><g><svg xmlns="http://www.w3.org/2000/svg" xmlns:xlink="http://www.w3.org/1999/xlink" version="1.1" x="0" y="0" viewBox="0 5 92 88" enable-background="new 0 0 96 96" xml:space="preserve" height="99.68963783611048" width="104.22098501047914" class="icon-icon-0" data-fill-palette-color="accent" id="icon-0"><g fill="#000000" data-fill-palette-color="accent"><rect y="20" fill="#000000" width="4" height="59" data-fill-palette-color="accent"></rect></g><g fill="#000000" data-fill-palette-color="accent"><rect x="8" y="33" fill="#000000" width="4" height="33" data-fill-palette-color="accent"></rect></g><g fill="#000000" data-fill-palette-color="accent"><rect x="16" y="27" fill="#000000" width="4" height="45" data-fill-palette-color="accent"></rect></g><g fill="#000000" data-fill-palette-color="accent"><rect x="24" y="16" fill="#000000" width="4" height="67" data-fill-palette-color="accent"></rect></g><g fill="#000000" data-fill-palette-color="accent"><rect x="32" y="43" fill="#000000" width="4" height="13" data-fill-palette-color="accent"></rect></g><g fill="#000000" data-fill-palette-color="accent"><rect x="40" y="37" fill="#000000" width="4" height="25" data-fill-palette-color="accent"></rect></g><g fill="#000000" data-fill-palette-color="accent"><rect x="48" y="30" fill="#000000" width="4" height="39" data-fill-palette-color="accent"></rect></g><g fill="#000000" data-fill-palette-color="accent"><rect x="56" y="33" fill="#000000" width="4" height="33" data-fill-palette-color="accent"></rect></g><g fill="#000000" data-fill-palette-color="accent"><rect x="64" y="47" fill="#000000" width="4" height="5" data-fill-palette-color="accent"></rect></g><g fill="#000000" data-fill-palette-color="accent"><rect x="72" y="5" fill="#000000" width="4" height="88" data-fill-palette-color="accent"></rect></g><g fill="#000000" data-fill-palette-color="accent"><rect x="80" y="23" fill="#000000" width="4" height="53" data-fill-palette-color="accent"></rect></g><g fill="#000000" data-fill-palette-color="accent"><rect x="88" y="37" fill="#000000" width="4" height="25" data-fill-palette-color="accent"></rect></g></svg></g></svg></g><g></g></svg></g></svg></g></svg></g><defs></defs></svg><rect width="395.52" height="247.2" fill="none" stroke="none" visibility="hidden"></rect></g></svg></g></svg>